<svg xmlns="http://www.w3.org/2000/svg" width="133.013" height="133.013" viewBox="0 0 133.013 133.013"><defs><style>.a{fill:#fff;}</style></defs><g transform="translate(-827 -515.987)"><path class="a" d="M54.214,41.429H47.143V35.536A3.536,3.536,0,0,0,43.607,32H3.536A3.536,3.536,0,0,0,0,35.536V94.464A3.536,3.536,0,0,0,3.536,98H43.607a3.536,3.536,0,0,0,3.536-3.536v-6.2l11.875-5.3A11.8,11.8,0,0,0,66,72.2V53.214A11.8,11.8,0,0,0,54.214,41.429ZM56.571,72.2a2.36,2.36,0,0,1-1.4,2.153l-8.032,3.585V50.857h7.071a2.36,2.36,0,0,1,2.357,2.357ZM30.643,83.857A2.357,2.357,0,0,1,28.286,81.5v-33A2.357,2.357,0,1,1,33,48.5v33A2.357,2.357,0,0,1,30.643,83.857Zm-14.143,0A2.357,2.357,0,0,1,14.143,81.5v-33a2.357,2.357,0,1,1,4.714,0v33A2.357,2.357,0,0,1,16.5,83.857Z" transform="translate(866 517)"/><path d="M74.506,8a66.506,66.506,0,1,0,66.506,66.506A66.506,66.506,0,0,0,74.506,8ZM109.4,39.615a49.349,49.349,0,0,1,5.545,63.191L46.206,34.07A49.349,49.349,0,0,1,109.4,39.615ZM39.615,109.4A49.349,49.349,0,0,1,34.07,46.207l68.736,68.736A49.349,49.349,0,0,1,39.615,109.4Z" transform="translate(819 507.987)"/></g></svg>