<svg xmlns="http://www.w3.org/2000/svg" width="133.013" height="133.013" viewBox="0 0 133.013 133.013"><defs><style>.a{fill:#fff;}</style></defs><g transform="translate(-992 -515.987)"><path class="a" d="M16.381,32A16.372,16.372,0,0,0,0,48.381V81.142a16.381,16.381,0,0,0,32.761,0V48.381A16.372,16.372,0,0,0,16.381,32ZM23.4,64.761H9.36V48.381a7.02,7.02,0,0,1,14.041,0Zm20.432-4.344a1.2,1.2,0,0,0-1.8.117A23.264,23.264,0,0,0,74.546,93.047a1.191,1.191,0,0,0,.117-1.8Zm33.61-2.779a23.318,23.318,0,0,0-30.187-2.325,1.191,1.191,0,0,0-.117,1.8L77.969,87.943a1.2,1.2,0,0,0,1.8-.117A23.3,23.3,0,0,0,77.442,57.639Z" transform="translate(1020 515.478)"/><path d="M74.506,8a66.506,66.506,0,1,0,66.506,66.506A66.506,66.506,0,0,0,74.506,8ZM109.4,39.615a49.349,49.349,0,0,1,5.545,63.191L46.206,34.07A49.349,49.349,0,0,1,109.4,39.615ZM39.615,109.4A49.349,49.349,0,0,1,34.07,46.207l68.736,68.736A49.349,49.349,0,0,1,39.615,109.4Z" transform="translate(984 507.987)"/></g></svg>