<svg xmlns="http://www.w3.org/2000/svg" width="133.013" height="133.013" viewBox="0 0 133.013 133.013"><defs><style>.a{fill:#fff;}</style></defs><g transform="translate(-730 -515.987)"><path class="a" d="M79.214,44.119H73.2a1.006,1.006,0,0,0-1,1V63.171a1.006,1.006,0,0,0,1,1h6.016a1.006,1.006,0,0,0,1-1V45.122A1.006,1.006,0,0,0,79.214,44.119Zm-9.864-33.2a2.543,2.543,0,0,1-1.166-2.106V1a1.006,1.006,0,0,0-1-1H61.165a1.006,1.006,0,0,0-1,1V8.811a8.249,8.249,0,0,0,3.585,6.944A18.461,18.461,0,0,1,72.2,31.3v3.8a1.006,1.006,0,0,0,1,1h6.016a1.006,1.006,0,0,0,1-1V31.3A24.476,24.476,0,0,0,69.35,10.917Zm-15.2,33.2H6.016A6.018,6.018,0,0,0,0,50.136v8.022a6.018,6.018,0,0,0,6.016,6.016h48.13a2.011,2.011,0,0,0,2.005-2.005V46.125A2.011,2.011,0,0,0,54.146,44.119ZM50.136,58.157H28.076V50.136h22.06ZM61.128,17.748a10.97,10.97,0,0,1-4.976-8.937V1a1.006,1.006,0,0,0-1-1H49.133a1.006,1.006,0,0,0-1,1V9.325c0,5.477,3.083,10.228,7.558,13.374a10.481,10.481,0,0,1,4.475,8.6v3.8a1.006,1.006,0,0,0,1,1h6.016a1.006,1.006,0,0,0,1-1V31.3A16.493,16.493,0,0,0,61.128,17.748Zm6.054,26.371H61.165a1.006,1.006,0,0,0-1,1V63.171a1.006,1.006,0,0,0,1,1h6.016a1.006,1.006,0,0,0,1-1V45.122A1.006,1.006,0,0,0,67.182,44.119Z" transform="translate(752 542.826)"/><path d="M74.506,8a66.506,66.506,0,1,0,66.506,66.506A66.506,66.506,0,0,0,74.506,8ZM109.4,39.615a49.349,49.349,0,0,1,5.545,63.191L46.206,34.07A49.349,49.349,0,0,1,109.4,39.615ZM39.615,109.4A49.349,49.349,0,0,1,34.07,46.207l68.736,68.736A49.349,49.349,0,0,1,39.615,109.4Z" transform="translate(722 507.987)"/></g></svg>